{
    "asset": {
        "generator": "COLLADA2GLTF",
        "version": "2.0"
    },
    "scene": 0,
    "scenes": [
        {
            "nodes": [
                0
            ]
        }
    ],
    "nodes": [
        {
            "children": [
                1
            ],
            "matrix": [
                1.0,
                0.0,
                0.0,
                0.0,
                0.0,
                0.0,
                -1.0,
                0.0,
                0.0,
                1.0,
                0.0,
                0.0,
                0.0,
                0.0,
                0.0,
                1.0
            ]
        },
        {
            "mesh": 0
        }
    ],
    "meshes": [
        {
            "primitives": [
                {
                    "attributes": {
                        "NORMAL": 1,
                        "POSITION": 2,
                        "TEXCOORD_0": 3
                    },
                    "indices": 0,
                    "mode": 4,
                    "material": 0
                }
            ],
            "name": "Mesh"
        }
    ],
    "accessors": [
        {
            "bufferView": 0,
            "byteOffset": 0,
            "componentType": 5123,
            "count": 36,
            "max": [
                23
            ],
            "min": [
                0
            ],
            "type": "SCALAR"
        },
        {
            "bufferView": 1,
            "byteOffset": 0,
            "componentType": 5126,
            "count": 24,
            "max": [
                1.0,
                1.0,
                1.0
            ],
            "min": [
                -1.0,
                -1.0,
                -1.0
            ],
            "type": "VEC3"
        },
        {
            "bufferView": 1,
            "byteOffset": 288,
            "componentType": 5126,
            "count": 24,
            "max": [
                0.5,
                0.5,
                0.5
            ],
            "min": [
                -0.5,
                -0.5,
                -0.5
            ],
            "type": "VEC3"
        },
        {
            "bufferView": 2,
            "byteOffset": 0,
            "componentType": 5126,
            "count": 24,
            "max": [
                6.0,
                1.0
            ],
            "min": [
                0.0,
                0.0
            ],
            "type": "VEC2"
        }
    ],
    "materials": [
   {
    "name": "PBR_FullTexture_Test",
    "pbrMetallicRoughness": {
      "baseColorTexture": { "index": 0 },
      "metallicRoughnessTexture": { "index": 1 },
      "baseColorFactor": [1.0, 1.0, 1.0, 1.0],
      "metallicFactor": 1.0,
      "roughnessFactor": 1.0
    },
    "normalTexture": {
      "index": 2,
      "scale": 1.0
    },
    "occlusionTexture": {
      "index": 3,
      "strength": 1.0
    },
    "emissiveTexture": {
      "index": 4
    },
    "emissiveFactor": [1.0, 1.0, 1.0]
    }
  ],
    "textures": [
    { "sampler": 0, "source": 0 },
    { "sampler": 0, "source": 1 },
    { "sampler": 0, "source": 2 },
    { "sampler": 0, "source": 3 },
    { "sampler": 0, "source": 4 }
  ],
    "images": [
    { "uri": "test_albedo.png" },
    { "uri": "test_metallic_roughness.png" },
    { "uri": "test_normal.png" },
    { "uri": "test_occlusion.png" },
    { "uri": "test_emissive.png" }
  ],"samplers": [
        {
            "magFilter": 9729,
            "minFilter": 9986,
            "wrapS": 10497,
            "wrapT": 10497
        }
    ],
    "bufferViews": [
        {
            "buffer": 0,
            "byteOffset": 768,
            "byteLength": 72,
            "target": 34963
        },
        {
            "buffer": 0,
            "byteOffset": 0,
            "byteLength": 576,
            "byteStride": 12,
            "target": 34962
        },
        {
            "buffer": 0,
            "byteOffset": 576,
            "byteLength": 192,
            "byteStride": 8,
            "target": 34962
        }
    ],
    "buffers": [
        {
            "byteLength": 840,
            "uri": "BoxTextured0.bin"
        }
    ]
}
